<mxfile host="app.diagrams.net" modified="2021-11-07T06:22:43.702Z" agent="5.0 (Windows NT 10.0; Win64; x64) AppleWebKit/537.36 (KHTML, like Gecko) Chrome/95.0.4638.54 Safari/537.36 Edg/95.0.1020.40" etag="WEitp1VNVNXji_zQe7mT" version="15.7.0" type="github">
  <diagram id="4V3O-64CNmHFoEL1uyVk" name="Page-1">
    <mxGraphModel dx="981" dy="548" grid="1" gridSize="10" guides="1" tooltips="1" connect="1" arrows="1" fold="1" page="1" pageScale="1" pageWidth="827" pageHeight="1169" math="0" shadow="0">
      <root>
        <mxCell id="0" />
        <mxCell id="1" parent="0" />
        <mxCell id="cMavoyoQz838QgzTTjWu-8" value="" style="rounded=0;whiteSpace=wrap;html=1;sketch=1;" vertex="1" parent="1">
          <mxGeometry x="707" y="60" width="303" height="250" as="geometry" />
        </mxCell>
        <mxCell id="cMavoyoQz838QgzTTjWu-10" value="" style="rounded=0;whiteSpace=wrap;html=1;sketch=1;" vertex="1" parent="1">
          <mxGeometry x="707" y="330" width="473" height="260" as="geometry" />
        </mxCell>
        <mxCell id="cMavoyoQz838QgzTTjWu-1" value="메인페이지" style="rounded=0;whiteSpace=wrap;html=1;sketch=1;" vertex="1" parent="1">
          <mxGeometry x="330" y="290" width="120" height="60" as="geometry" />
        </mxCell>
        <mxCell id="cMavoyoQz838QgzTTjWu-2" value="(메인기능)게시판" style="rounded=0;whiteSpace=wrap;html=1;sketch=1;" vertex="1" parent="1">
          <mxGeometry x="330" y="230" width="120" height="60" as="geometry" />
        </mxCell>
        <mxCell id="cMavoyoQz838QgzTTjWu-19" style="edgeStyle=orthogonalEdgeStyle;curved=1;rounded=0;sketch=1;orthogonalLoop=1;jettySize=auto;html=1;entryX=0;entryY=0.5;entryDx=0;entryDy=0;" edge="1" parent="1" source="cMavoyoQz838QgzTTjWu-3" target="cMavoyoQz838QgzTTjWu-4">
          <mxGeometry relative="1" as="geometry">
            <Array as="points">
              <mxPoint x="750" y="350" />
              <mxPoint x="750" y="400" />
            </Array>
          </mxGeometry>
        </mxCell>
        <mxCell id="cMavoyoQz838QgzTTjWu-20" style="edgeStyle=orthogonalEdgeStyle;curved=1;rounded=0;sketch=1;orthogonalLoop=1;jettySize=auto;html=1;entryX=0;entryY=0.5;entryDx=0;entryDy=0;exitX=1;exitY=1;exitDx=0;exitDy=0;" edge="1" parent="1" source="cMavoyoQz838QgzTTjWu-3" target="cMavoyoQz838QgzTTjWu-5">
          <mxGeometry relative="1" as="geometry" />
        </mxCell>
        <mxCell id="cMavoyoQz838QgzTTjWu-3" value="메인페이지&lt;br&gt;index.mws" style="rounded=0;whiteSpace=wrap;html=1;sketch=1;fillColor=#dae8fc;strokeColor=#6c8ebf;" vertex="1" parent="1">
          <mxGeometry x="560" y="290" width="120" height="60" as="geometry" />
        </mxCell>
        <mxCell id="cMavoyoQz838QgzTTjWu-21" value="id&lt;br&gt;pw&lt;br&gt;nick&lt;br&gt;email&lt;br&gt;phone&lt;br&gt;birth&lt;br&gt;profile" style="edgeStyle=orthogonalEdgeStyle;curved=1;rounded=0;sketch=1;orthogonalLoop=1;jettySize=auto;html=1;" edge="1" parent="1" source="cMavoyoQz838QgzTTjWu-4" target="cMavoyoQz838QgzTTjWu-17">
          <mxGeometry relative="1" as="geometry" />
        </mxCell>
        <mxCell id="cMavoyoQz838QgzTTjWu-4" value="가입&lt;br&gt;/member&lt;br&gt;/join.jsp" style="rounded=0;whiteSpace=wrap;html=1;sketch=1;fillColor=#dae8fc;strokeColor=#6c8ebf;" vertex="1" parent="1">
          <mxGeometry x="820" y="370" width="120" height="60" as="geometry" />
        </mxCell>
        <mxCell id="cMavoyoQz838QgzTTjWu-5" value="로그인&lt;br&gt;/member&lt;br&gt;/login.jsp" style="rounded=0;whiteSpace=wrap;html=1;sketch=1;fillColor=#dae8fc;strokeColor=#6c8ebf;" vertex="1" parent="1">
          <mxGeometry x="820" y="510" width="120" height="60" as="geometry" />
        </mxCell>
        <mxCell id="cMavoyoQz838QgzTTjWu-6" value="내정보" style="rounded=0;whiteSpace=wrap;html=1;sketch=1;" vertex="1" parent="1">
          <mxGeometry x="730" y="90" width="120" height="60" as="geometry" />
        </mxCell>
        <mxCell id="cMavoyoQz838QgzTTjWu-9" value="회원기능" style="text;html=1;strokeColor=none;fillColor=none;align=center;verticalAlign=middle;whiteSpace=wrap;rounded=0;sketch=1;" vertex="1" parent="1">
          <mxGeometry x="707" y="60" width="60" height="30" as="geometry" />
        </mxCell>
        <mxCell id="cMavoyoQz838QgzTTjWu-11" value="비회원기능" style="text;html=1;strokeColor=none;fillColor=none;align=center;verticalAlign=middle;whiteSpace=wrap;rounded=0;sketch=1;" vertex="1" parent="1">
          <mxGeometry x="707" y="330" width="70" height="30" as="geometry" />
        </mxCell>
        <mxCell id="cMavoyoQz838QgzTTjWu-12" value="게시판이용" style="rounded=0;whiteSpace=wrap;html=1;sketch=1;" vertex="1" parent="1">
          <mxGeometry x="860" y="90" width="120" height="60" as="geometry" />
        </mxCell>
        <mxCell id="cMavoyoQz838QgzTTjWu-13" value="로그아웃" style="rounded=0;whiteSpace=wrap;html=1;sketch=1;" vertex="1" parent="1">
          <mxGeometry x="730" y="160" width="120" height="60" as="geometry" />
        </mxCell>
        <mxCell id="cMavoyoQz838QgzTTjWu-14" value="포인트충전" style="rounded=0;whiteSpace=wrap;html=1;sketch=1;" vertex="1" parent="1">
          <mxGeometry x="860" y="160" width="120" height="60" as="geometry" />
        </mxCell>
        <mxCell id="cMavoyoQz838QgzTTjWu-15" value="탈퇴" style="rounded=0;whiteSpace=wrap;html=1;sketch=1;" vertex="1" parent="1">
          <mxGeometry x="730" y="230" width="120" height="60" as="geometry" />
        </mxCell>
        <mxCell id="cMavoyoQz838QgzTTjWu-16" value="정보수정" style="rounded=0;whiteSpace=wrap;html=1;sketch=1;" vertex="1" parent="1">
          <mxGeometry x="860" y="230" width="120" height="60" as="geometry" />
        </mxCell>
        <mxCell id="cMavoyoQz838QgzTTjWu-22" value="성공" style="edgeStyle=orthogonalEdgeStyle;curved=1;rounded=0;sketch=1;orthogonalLoop=1;jettySize=auto;html=1;" edge="1" parent="1" source="cMavoyoQz838QgzTTjWu-17" target="cMavoyoQz838QgzTTjWu-18">
          <mxGeometry relative="1" as="geometry" />
        </mxCell>
        <mxCell id="cMavoyoQz838QgzTTjWu-17" value="가입처리&lt;br&gt;/member&lt;br&gt;/join.mws" style="rounded=0;whiteSpace=wrap;html=1;sketch=1;fillColor=#f8cecc;strokeColor=#b85450;" vertex="1" parent="1">
          <mxGeometry x="1020" y="380" width="120" height="60" as="geometry" />
        </mxCell>
        <mxCell id="cMavoyoQz838QgzTTjWu-23" style="edgeStyle=orthogonalEdgeStyle;curved=1;rounded=0;sketch=1;orthogonalLoop=1;jettySize=auto;html=1;entryX=1;entryY=0.5;entryDx=0;entryDy=0;" edge="1" parent="1" source="cMavoyoQz838QgzTTjWu-18" target="cMavoyoQz838QgzTTjWu-5">
          <mxGeometry relative="1" as="geometry" />
        </mxCell>
        <mxCell id="cMavoyoQz838QgzTTjWu-26" style="edgeStyle=orthogonalEdgeStyle;curved=1;rounded=0;sketch=1;orthogonalLoop=1;jettySize=auto;html=1;entryX=0.882;entryY=1.033;entryDx=0;entryDy=0;entryPerimeter=0;exitX=0;exitY=0.5;exitDx=0;exitDy=0;" edge="1" parent="1" source="cMavoyoQz838QgzTTjWu-18" target="cMavoyoQz838QgzTTjWu-3">
          <mxGeometry relative="1" as="geometry">
            <Array as="points">
              <mxPoint x="990" y="540" />
              <mxPoint x="990" y="500" />
              <mxPoint x="666" y="500" />
            </Array>
          </mxGeometry>
        </mxCell>
        <mxCell id="cMavoyoQz838QgzTTjWu-18" value="가입완료&lt;br&gt;/member&lt;br&gt;/join_success.jsp" style="rounded=0;whiteSpace=wrap;html=1;sketch=1;fillColor=#dae8fc;strokeColor=#6c8ebf;" vertex="1" parent="1">
          <mxGeometry x="1020" y="510" width="120" height="60" as="geometry" />
        </mxCell>
      </root>
    </mxGraphModel>
  </diagram>
</mxfile>
